<svg width="176" height="63" viewBox="0 0 176 63" fill="none" xmlns="http://www.w3.org/2000/svg">
<rect width="176" height="63" fill="white"/>
<path d="M58.3425 26.94C63.4572 27.22 66.9198 27.36 68.7305 27.36C69.1598 27.36 69.4958 27.2387 69.7385 26.996C69.9998 26.7347 70.1305 26.3893 70.1305 25.96V23.44H63.6905C61.7305 23.44 60.3025 23.0013 59.4065 22.124C58.5292 21.228 58.0905 19.8 58.0905 17.84V17C58.0905 15.04 58.5292 13.6213 59.4065 12.744C60.3025 11.848 61.7305 11.4 63.6905 11.4H73.5185V15.32H64.8105C63.6905 15.32 63.1305 15.88 63.1305 17V17.56C63.1305 18.68 63.6905 19.24 64.8105 19.24H69.8505C71.6798 19.24 73.0238 19.6693 73.8825 20.528C74.7412 21.3867 75.1705 22.7307 75.1705 24.56V25.96C75.1705 27.7893 74.7412 29.1333 73.8825 29.992C73.0238 30.8507 71.6798 31.28 69.8505 31.28C68.8985 31.28 67.8905 31.2613 66.8265 31.224L64.2505 31.112C62.3465 31.0187 60.3772 30.888 58.3425 30.72V26.94ZM89.4483 31H84.4083V11.4H89.4483V19.1H91.9683L96.3363 11.4H101.656L96.1683 21.06L101.628 31H96.3083L91.9683 23.02H89.4483V31ZM119.29 31H109.21V27.08H111.73V15.32H109.21V11.4H119.29V15.32H116.77V27.08H119.29V31ZM133.568 27.08H143.788V31H128.528V11.4H133.568V27.08ZM157.515 27.08H167.735V31H152.475V11.4H157.515V27.08Z" fill="black"/>
<path d="M57.8745 47.8675C60.7972 48.0275 62.7758 48.1075 63.8105 48.1075C64.0558 48.1075 64.2478 48.0382 64.3865 47.8995C64.5358 47.7502 64.6105 47.5528 64.6105 47.3075V45.8675H60.9305C59.8105 45.8675 58.9945 45.6168 58.4825 45.1155C57.9812 44.6035 57.7305 43.7875 57.7305 42.6675V42.1875C57.7305 41.0675 57.9812 40.2568 58.4825 39.7555C58.9945 39.2435 59.8105 38.9875 60.9305 38.9875H66.5465V41.2275H61.5705C60.9305 41.2275 60.6105 41.5475 60.6105 42.1875V42.5075C60.6105 43.1475 60.9305 43.4675 61.5705 43.4675H64.4505C65.4958 43.4675 66.2638 43.7128 66.7545 44.2035C67.2452 44.6942 67.4905 45.4622 67.4905 46.5075V47.3075C67.4905 48.3528 67.2452 49.1208 66.7545 49.6115C66.2638 50.1022 65.4958 50.3475 64.4505 50.3475C63.9065 50.3475 63.3305 50.3368 62.7225 50.3155L61.2505 50.2515C60.1625 50.1982 59.0372 50.1235 57.8745 50.0275V47.8675ZM79.6492 50.1875H76.7692V45.6275H72.7692V50.1875H69.8892V38.9875H72.7692V43.3875H76.7692V38.9875H79.6492V50.1875ZM89.7367 38.9875H92.6167V47.1475C92.6167 48.2675 92.3607 49.0835 91.8487 49.5955C91.3474 50.0968 90.5367 50.3475 89.4167 50.3475H85.7367C84.6167 50.3475 83.8007 50.0968 83.2887 49.5955C82.7874 49.0835 82.5367 48.2675 82.5367 47.1475V38.9875H85.4167V47.1475C85.4167 47.7875 85.7367 48.1075 86.3767 48.1075H88.7767C89.4167 48.1075 89.7367 47.7875 89.7367 47.1475V38.9875ZM98.3767 50.1875H95.4967V38.9875H104.377V41.2275H98.3767V43.8675H103.097V46.1075H98.3767V50.1875ZM109.337 50.1875H106.457V38.9875H115.337V41.2275H109.337V43.8675H114.057V46.1075H109.337V50.1875ZM120.297 47.9475H126.137V50.1875H117.417V38.9875H120.297V47.9475ZM137.1 50.1875H128.22V38.9875H137.1V41.2275H131.1V43.3875H135.82V45.6275H131.1V47.9475H137.1V50.1875Z" fill="black"/>
<path d="M42.5115 18.132C43.5471 19.0088 43.5424 20.6099 42.4992 21.4776V21.4776C41.8337 22.0316 41.1642 22.581 40.5026 23.1398C40.3469 23.2718 40.2528 23.3232 40.0568 23.1541C38.4151 21.7431 36.7583 20.3504 35.1056 18.9529C32.6853 16.9081 30.2642 14.864 27.8431 12.82C27.5198 12.5473 27.1839 12.288 26.8701 12.005C26.7483 11.8952 26.6764 11.8873 26.5523 11.9932C25.2204 13.1314 23.8862 14.2665 22.5496 15.3991C21.3189 16.4425 20.0834 17.4803 18.8527 18.5237C17.494 19.6762 16.1384 20.8318 14.7804 21.9858V21.9858C14.3795 22.3257 14.3763 22.9428 14.7774 23.2826C16.683 24.8966 18.5774 26.5008 20.4723 28.1037C20.9078 28.4721 21.3457 28.838 21.79 29.1953C21.9204 29.3004 21.9307 29.366 21.7971 29.4751C20.8343 30.2624 19.8566 31.0299 18.9096 31.8369C18.5611 32.1333 18.1967 32.4116 17.8528 32.7135C17.7461 32.8076 17.6837 32.8305 17.5612 32.7262C16.1471 31.52 14.7283 30.3185 13.3071 29.1202C11.7207 27.782 10.1319 26.4462 8.54156 25.1127C7.87285 24.5523 7.32824 23.92 7.18043 23.0173C6.97413 21.7566 7.36381 20.7148 8.31786 19.884C9.22923 19.0897 10.1532 18.3087 11.0733 17.5246C12.3388 16.4465 13.6082 15.3731 14.8729 14.2949C16.2743 13.1006 17.6726 11.9015 19.0733 10.7064C20.2265 9.72227 21.3813 8.74056 22.5369 7.75884C22.9037 7.44741 23.2578 7.1178 23.6467 6.83562C24.6236 6.1266 25.7216 5.92267 26.9183 6.02464C28.1292 6.12818 29.0564 6.73444 29.9361 7.49721C31.2751 8.65756 32.6394 9.79025 33.9926 10.9348C35.202 11.9584 36.4105 12.9836 37.6215 14.0064C38.6957 14.9138 39.7738 15.8173 40.848 16.7247C41.4022 17.1931 41.956 17.6617 42.5115 18.132Z" fill="#3D00FF"/>
<path d="M37.3296 40.5154C37.415 40.4391 37.4222 40.3078 37.3347 40.2339C35.3519 38.558 33.3847 36.8957 31.416 35.2324C30.4462 34.413 30.4508 32.9124 31.4314 32.106V32.106C32.1673 31.5005 32.9095 30.9022 33.6407 30.2904C33.7663 30.1852 33.8304 30.1837 33.956 30.2904C35.6887 31.7598 37.4284 33.2213 39.1634 34.6875C40.5316 35.8447 41.907 36.994 43.2594 38.1694C44.8126 39.5194 44.7241 41.8631 43.1266 43.1689C41.9457 44.134 40.8043 45.1465 39.6448 46.1369C38.5295 47.0894 37.4142 48.0411 36.2973 48.992C35.1504 49.9689 34.0027 50.9451 32.8558 51.9229C31.6867 52.9188 30.5193 53.9171 29.3494 54.9123C28.8554 55.3328 28.378 55.777 27.8563 56.1596C26.8659 56.886 25.7443 57.0891 24.5278 56.9714C23.3666 56.8583 22.4616 56.294 21.6151 55.5541C20.5409 54.6159 19.4422 53.7045 18.3529 52.7837C17.0147 51.6518 15.675 50.5214 14.3352 49.3911C13.1092 48.3565 11.8817 47.3241 10.6573 46.2879C9.57601 45.3734 8.49786 44.4549 7.41814 43.5388V43.5388C7.20414 43.3567 7.19925 43.0289 7.41456 42.8484C7.71559 42.5959 8.01211 42.3473 8.30974 42.1002C9.19423 41.3651 10.0827 40.6347 10.9624 39.8941C11.1474 39.7384 11.2549 39.6918 11.481 39.8862C13.0618 41.2457 14.6664 42.5776 16.2591 43.9237C18.1016 45.4801 19.9378 47.0435 21.7795 48.6015C22.7264 49.403 23.6797 50.1958 24.625 50.9997C24.7562 51.1111 24.8337 51.1127 24.9673 50.9981C26.6145 49.5919 28.2697 48.1944 29.9209 46.7922C31.286 45.6326 32.6463 44.4675 34.013 43.3096C35.1156 42.3745 36.2238 41.4465 37.3296 40.5154V40.5154Z" fill="#3D00FF"/>
<path d="M37.5264 25.5422C38.1089 25.06 38.693 24.5803 39.2851 24.0918C39.1934 24.0222 39.127 23.9661 39.0566 23.9179C38.7507 23.7045 38.4456 23.4903 38.1358 23.2832C35.2879 21.3845 32.2147 20.0693 28.7787 19.7278C27.5416 19.6053 26.2999 19.6519 25.0723 19.8456C23.4891 20.0946 21.9738 20.5744 20.5495 21.3189C19.9804 21.6169 19.4255 21.9402 18.8943 22.371C20.5914 22.0556 22.2465 21.813 23.9396 21.956C25.07 22.0509 26.1631 22.2667 27.1994 22.7346C28.0625 23.1243 28.9284 23.8282 29.4991 24.5981C27.7601 26.032 25.9213 27.587 24.1855 29.024C22.7698 30.197 21.3462 31.3606 19.929 32.5312C18.0383 34.0923 16.15 35.6566 14.2608 37.22C13.5803 37.7836 12.8989 38.3472 12.2104 38.9163C12.9701 39.4688 13.7273 39.9739 14.509 40.4434C17.0376 41.9618 19.7417 42.9751 22.6884 43.2716C23.8732 43.3909 25.0581 43.3387 26.2422 43.1696C27.6231 42.972 28.9454 42.5942 30.2157 42.0298C31.0519 41.6583 31.8503 41.2157 32.6107 40.626C30.9073 40.939 29.249 41.188 27.5511 41.0418C26.5149 40.9524 25.5071 40.7691 24.5451 40.3738C23.5966 39.9842 22.6371 39.3865 22.0056 38.5581C23.8078 37.0618 26.616 34.5563 28.4214 33.0624C29.9224 31.8206 31.4298 30.5859 32.9316 29.3458C34.465 28.0795 35.9945 26.8101 37.5264 25.5422Z" fill="black"/>
</svg>
