<svg width="80" height="80" viewBox="0 0 80 80" fill="none" xmlns="http://www.w3.org/2000/svg">
<circle cx="40" cy="40" r="40" fill="#F1F1F1"/>
<g clip-path="url(#clip0_791_1100)">
<path d="M57.0312 29.3555H50.4395L46.4941 25.3711C46.4941 25.3711 46.4746 25.3516 46.4648 25.3516L46.4453 25.332C45.8594 24.7461 45.0684 24.375 44.1699 24.375H35.9668C35.0098 24.375 34.1602 24.7852 33.5645 25.4395V25.4492L29.707 29.3555H22.9687C21.1523 29.3555 19.6875 30.7812 19.6875 32.5977V52.334C19.6875 54.1504 21.1523 55.625 22.9687 55.625H57.0312C58.8379 55.625 60.3125 54.1504 60.3125 52.334V32.5977C60.3125 30.7812 58.8379 29.3555 57.0312 29.3555ZM40 50.6934C35.0293 50.6934 30.9766 46.6309 30.9766 41.6504C30.9766 36.6602 35.0293 32.6074 40 32.6074C44.9805 32.6074 49.0234 36.6602 49.0234 41.6504C49.0234 46.6309 44.9805 50.6934 40 50.6934ZM56.416 34.5801C55.6641 34.5801 55.0488 33.9648 55.0488 33.2031C55.0488 32.4414 55.6641 31.8262 56.416 31.8262C57.168 31.8262 57.7832 32.4414 57.7832 33.2031C57.7832 33.9648 57.168 34.5801 56.416 34.5801Z" fill="#8F8F8F"/>
<path d="M40 34.8145C36.2305 34.8145 33.1836 37.8711 33.1836 41.6504C33.1836 45.4199 36.2305 48.4863 40 48.4863C43.7598 48.4863 46.8164 45.4297 46.8164 41.6504C46.8164 37.8711 43.7598 34.8145 40 34.8145Z" fill="#8F8F8F"/>
</g>
<defs>
<clipPath id="clip0_791_1100">
<rect width="42" height="32" fill="white" transform="translate(19 24)"/>
</clipPath>
</defs>
</svg>
