<svg width="11" height="13" viewBox="0 0 11 13" fill="none" xmlns="http://www.w3.org/2000/svg">
<path d="M10.4536 13C10.3582 13 10.2645 12.9777 10.1819 12.9353L5.5 9.1L0.81808 12.9353C0.735035 12.9776 0.640941 12.9997 0.545219 12.9996C0.449497 12.9994 0.355508 12.9769 0.272662 12.9343C0.189817 12.8917 0.121023 12.8306 0.0731706 12.757C0.0253179 12.6834 8.54457e-05 12.5999 0 12.5149V0.485075C0 0.356425 0.0575624 0.233044 0.160024 0.142075C0.262486 0.0511059 0.401455 0 0.546358 0H10.4536C10.5985 0 10.7375 0.0511059 10.84 0.142075C10.9424 0.233044 11 0.356425 11 0.485075V12.5149C11 12.6436 10.9424 12.767 10.84 12.8579C10.7375 12.9489 10.5985 13 10.4536 13ZM5.5 7.58333C5.5954 7.58334 5.81025 7.90208 5.89286 7.94444L9.90728 11.2667V0.970149H1.09272V11.2667L5.10714 7.94444C5.18975 7.90208 5.4046 7.58334 5.5 7.58333Z" fill="black"/>
</svg>
