<svg width="16" height="13" viewBox="0 0 16 13" fill="none" xmlns="http://www.w3.org/2000/svg">
<path d="M10.25 0.968507C10.2079 0.96839 10.1664 0.97895 10.1295 0.999183L0.129518 6.44169C0.11637 6.44998 0.104063 6.45951 0.0927676 6.47014C0.084695 6.47583 0.0769341 6.48194 0.0695176 6.48845C0.0485939 6.50954 0.0316596 6.53417 0.0195176 6.56118C0.0182676 6.56415 0.0182676 6.56761 0.0170176 6.57083C0.00744008 6.59603 0.00203722 6.62259 0.00101758 6.6495C0.00101758 6.65271 -0.000732422 6.65519 -0.000732422 6.6584V12.5957C-0.000732422 12.6613 0.0256068 12.7242 0.0724909 12.7706C0.119375 12.817 0.182963 12.8431 0.249268 12.8431H15.75C15.8163 12.8431 15.8799 12.817 15.9268 12.7706C15.9737 12.7242 16 12.6613 16 12.5957V6.6584C15.9983 5.14987 15.3919 3.70361 14.314 2.63692C13.236 1.57023 11.7745 0.970209 10.25 0.968507ZM10.3135 1.46328C11.6511 1.4809 12.9317 2.00247 13.8942 2.92175C14.8568 3.84102 15.429 5.08884 15.4943 6.41102H14.9415C14.8365 6.06111 14.6621 5.73541 14.4285 5.45292C14.1949 5.17042 13.9068 4.93679 13.581 4.76565C13.4419 4.14264 13.0916 3.58551 12.5881 3.18689C12.0847 2.78827 11.4585 2.57218 10.8138 2.57454C10.7343 2.57454 10.6528 2.5785 10.5678 2.58666L10.565 2.58122C10.4251 2.23389 10.2041 1.92429 9.92002 1.67776L10.3135 1.46328ZM13.011 5.59464L12.6445 5.42295L12.5848 5.03851C12.5143 4.62473 12.2975 4.2492 11.9731 3.97898C11.6487 3.70876 11.2378 3.56145 10.8138 3.56335C10.7231 3.56475 10.6326 3.57227 10.543 3.58586L9.97252 3.66873L9.72127 3.17396C9.51176 2.79442 9.17129 2.50211 8.76202 2.35041L9.49752 1.9865C9.80352 2.16512 9.93727 2.43551 10.1158 2.79645L10.199 2.96319C10.2228 3.00996 10.2609 3.04807 10.308 3.07203C10.355 3.09599 10.4085 3.10457 10.4608 3.09653C10.5775 3.07776 10.6955 3.068 10.8138 3.06734C11.3618 3.06359 11.8933 3.25239 12.3138 3.60012C12.7343 3.94786 13.0164 4.43197 13.11 4.96628C13.1162 5.00625 13.1322 5.0441 13.1566 5.07654C13.181 5.10897 13.2131 5.13499 13.25 5.15231C13.7908 5.4049 14.2105 5.85658 14.4195 6.41102H13.8525C13.6751 6.05162 13.3779 5.76373 13.011 5.59588V5.59464ZM8.03702 2.70269C8.28622 2.70443 8.53082 2.76927 8.74753 2.89104C8.96424 3.01281 9.14583 3.18746 9.27502 3.39834L9.60702 4.05194C9.63063 4.09839 9.66844 4.1363 9.71507 4.16029C9.7617 4.18427 9.81478 4.1931 9.86677 4.18552L10.6128 4.07692C10.679 4.06677 10.7458 4.0609 10.8128 4.05936C11.1175 4.05679 11.4132 4.1615 11.647 4.35478C11.8809 4.54806 12.0378 4.81732 12.0895 5.11446L12.1695 5.62927C12.1757 5.66924 12.1917 5.7071 12.2161 5.73953C12.2405 5.77197 12.2726 5.79798 12.3095 5.81531L12.7963 6.04315C12.9776 6.12827 13.1363 6.25426 13.2595 6.41102H1.22352L8.03702 2.70269ZM0.500018 9.87443H14.5V10.3692H0.500018V9.87443ZM14.5 9.37966H0.500018V7.89534H14.5V9.37966ZM0.500018 12.3483V10.864H14.5V12.3483H0.500018ZM15.5 12.3483H15V7.64795C15 7.58234 14.9737 7.51941 14.9268 7.47302C14.8799 7.42663 14.8163 7.40056 14.75 7.40056H0.500018V6.90579H15.5V12.3483Z" fill="#929292"/>
</svg>
