<svg width="16" height="15" viewBox="0 0 16 15" fill="none" xmlns="http://www.w3.org/2000/svg">
<path d="M2.46204 1.58058H3.12743V0.734206C3.12743 0.520462 3.3028 0.346924 3.51881 0.346924H4.84959C5.06559 0.346924 5.24077 0.520462 5.24077 0.734206V1.58058H10.7593V0.734206C10.7593 0.520462 10.9345 0.346924 11.1507 0.346924H12.4813C12.6973 0.346924 12.8726 0.520462 12.8726 0.734206V1.58058H13.538C14.8017 1.58058 15.8343 2.60236 15.8343 3.85303C15.8343 6.77569 15.8343 9.69836 15.8343 12.621C15.8343 13.8717 14.8017 14.8935 13.538 14.8935H2.46204C1.19835 14.8935 0.165771 13.8717 0.165771 12.621C0.165771 9.69836 0.165771 6.77569 0.165771 3.85303C0.165771 2.60236 1.19835 1.58058 2.46204 1.58058ZM2.15892 9.95137H3.76353V11.5392H2.15892V9.95137ZM12.2365 9.95137H13.8413V11.5392H12.2365V9.95137ZM8.87727 9.95137H10.4819V11.5392H8.87727V9.95137ZM5.51819 9.95137H7.1228V11.5392H5.51819V9.95137ZM2.15892 7.51155H3.76353V9.09939H2.15892V7.51155ZM12.2365 7.51155H13.8413V9.09939H12.2365V7.51155ZM8.87727 7.51155H10.4819V9.09939H8.87727V7.51155ZM5.51819 7.51155H7.1228V9.09939H5.51819V7.51155ZM3.91018 1.96786V2.82564H4.45821V1.96786V1.12149H3.91018V1.96786ZM11.5421 2.82564H12.0899V1.12149H11.5421V2.82564ZM0.948518 5.76887H15.0516V5.11698H0.948518V5.76887ZM15.0516 6.54344H0.948518V12.621C0.948518 13.444 1.63035 14.1189 2.46204 14.1189H13.538C14.3697 14.1189 15.0516 13.444 15.0516 12.621V6.54344ZM0.948518 4.34242H15.0516V3.85303C15.0516 3.03004 14.3697 2.35514 13.538 2.35514H12.8726V3.21292C12.8726 3.42667 12.6973 3.60021 12.4813 3.60021H11.1507C10.9345 3.60021 10.7593 3.42667 10.7593 3.21292V2.35514H5.24077V3.21292C5.24077 3.42667 5.06559 3.60021 4.84959 3.60021H3.51881C3.3028 3.60021 3.12743 3.42667 3.12743 3.21292V2.35514H2.46204C1.63035 2.35514 0.948518 3.03004 0.948518 3.85303V4.34242Z" fill="#929292"/>
</svg>
