<svg width="22" height="23" viewBox="0 0 22 23" fill="none" xmlns="http://www.w3.org/2000/svg">
<path d="M12.4401 0.419922H9.5301C4.6401 0.512514 0.7101 4.71005 0.800099 9.77177C0.890099 14.71 4.7601 18.6915 9.5601 18.7841H17.8401L21.3801 22.5804V9.61745C21.3501 4.55572 17.3601 0.450786 12.4401 0.419922ZM20.4801 20.2656L18.2001 17.8582H9.5601C5.1201 17.8582 1.5501 14.1545 1.5501 9.61745C1.5501 5.04955 5.1501 1.37671 9.5601 1.37671H12.4701C16.8801 1.37671 20.4801 5.08042 20.4801 9.61745V20.2656Z" fill="black"/>
<path d="M15.9798 7.02344H6.0498V7.94936H15.9798V7.02344Z" fill="black"/>
<path d="M15.9798 10.6367H6.0498V11.5626H15.9798V10.6367Z" fill="black"/>
</svg>
