<svg width="25" height="25" viewBox="0 0 25 25" fill="none" xmlns="http://www.w3.org/2000/svg">
<path d="M1.4 19.8219V8.88704C1.4 7.30856 1.40109 6.20891 1.47104 5.35295C1.53965 4.51334 1.66747 4.03224 1.85288 3.66845C2.25124 2.88677 2.88693 2.25119 3.66887 1.85286C4.03284 1.66744 4.51415 1.53963 5.35399 1.47103C6.21017 1.40109 7.31009 1.4 8.88889 1.4H16.1111C17.6899 1.4 18.7898 1.40109 19.646 1.47103C20.4859 1.53963 20.9672 1.66744 21.3311 1.85286L21.9666 0.605394L21.3311 1.85286C22.1131 2.25119 22.7488 2.88677 23.1471 3.66845L24.3945 3.03276L23.1471 3.66845C23.3325 4.03224 23.4603 4.51334 23.529 5.35295C23.5989 6.20891 23.6 7.30856 23.6 8.88704V10.5534C23.6 12.1318 23.5989 13.2315 23.529 14.0875C23.4603 14.9271 23.3325 15.4082 23.1471 15.772L24.3945 16.4076L23.1471 15.772C22.7488 16.5536 22.1131 17.1892 21.3311 17.5876C20.9672 17.773 20.4859 17.9008 19.646 17.9694C18.7898 18.0393 17.6899 18.0404 16.1111 18.0404H10.2211C10.1811 18.0404 10.1414 18.0404 10.102 18.0403C9.52358 18.0398 9.01193 18.0393 8.51614 18.1611C8.08069 18.2681 7.6653 18.4445 7.28593 18.6835C6.85397 18.9557 6.49903 19.3242 6.09781 19.7407C6.0705 19.7691 6.04298 19.7977 6.0152 19.8265L4.72476 21.1637C3.8097 22.1119 3.18836 22.7538 2.70178 23.1766C2.3091 23.5178 2.14116 23.5885 2.12007 23.599C1.91778 23.6099 1.72103 23.5305 1.5831 23.3823C1.57517 23.36 1.50353 23.1925 1.4579 22.6748C1.40132 22.0328 1.4 21.1395 1.4 19.8219Z" stroke="#8F8F8F" stroke-width="2.8"/>
</svg>
