<svg width="23" height="23" viewBox="0 0 23 23" fill="none" xmlns="http://www.w3.org/2000/svg">
<path d="M11.4998 0.6875C5.53101 0.6875 0.687256 5.53125 0.687256 11.5C0.687256 17.4688 5.53101 22.3125 11.4685 22.3125C17.406 22.3125 22.281 17.4688 22.3123 11.5C22.281 5.53125 17.4685 0.71875 11.4998 0.6875ZM11.4998 21.375C6.06226 21.375 1.62476 16.9375 1.62476 11.5C1.62476 6.0625 6.06226 1.625 11.4998 1.625C16.9373 1.625 21.3748 6.03125 21.3748 11.4688C21.3435 16.9375 16.9373 21.3437 11.4998 21.375Z" fill="black"/>
<path d="M11.4998 3.65625V4.59375C15.3123 4.59375 18.3748 7.6875 18.406 11.5H19.3435C19.3435 7.1875 15.8123 3.6875 11.4998 3.65625Z" fill="black"/>
<path d="M11.9688 6.96875H11.0312V11.0312H6.96875V11.9688H11.0312V16.0312H11.9688V11.9688H16.0312V11.0312H11.9688V6.96875Z" fill="black"/>
</svg>
