<svg width="10" height="10" viewBox="0 0 10 10" fill="none" xmlns="http://www.w3.org/2000/svg">
<path d="M5.07071 5.92929L5 5.85858L4.92929 5.92929L1.14357 9.715C1.07805 9.78053 1.0165 9.8257 0.950458 9.85505C0.884851 9.88421 0.80976 9.9 0.714286 9.9C0.618811 9.9 0.54372 9.88421 0.478114 9.85505C0.412073 9.8257 0.350522 9.78053 0.284997 9.715C0.0383346 9.46834 0.0383346 9.10309 0.284996 8.85643L4.07071 5.07071L4.14142 5L4.07071 4.92929L0.284996 1.14357C0.0383345 0.896913 0.0383346 0.531658 0.284996 0.284996C0.531658 0.0383345 0.896913 0.0383345 1.14357 0.284996L4.92929 4.07071L5 4.14142L5.07071 4.07071L8.85642 0.284996C9.10309 0.0383345 9.46834 0.0383345 9.715 0.284996C9.96167 0.531658 9.96167 0.896913 9.715 1.14357L5.92929 4.92929L5.85858 5L5.92929 5.07071L9.715 8.85643C9.96167 9.10309 9.96167 9.46834 9.715 9.715C9.59213 9.83788 9.40384 9.9 9.28571 9.9C9.16759 9.9 8.9793 9.83788 8.85642 9.715L5.07071 5.92929Z" fill="#8F8F8F" stroke="white" stroke-width="0.2"/>
</svg>
