<svg width="38" height="38" viewBox="0 0 38 38" fill="none" xmlns="http://www.w3.org/2000/svg">
<path d="M30.0643 3.18555L34.8143 7.93555L31.1932 11.5582L26.4432 6.80821L30.0643 3.18555ZM12.6667 25.3332H17.4167L28.9544 13.7955L24.2044 9.04546L12.6667 20.5832V25.3332Z" fill="white"/>
<path d="M30.0833 30.0833H12.9168C12.8757 30.0833 12.8329 30.0992 12.7918 30.0992C12.7395 30.0992 12.6873 30.0849 12.6334 30.0833H7.91667V7.91667H18.7578L21.9244 4.75H7.91667C6.17025 4.75 4.75 6.16867 4.75 7.91667V30.0833C4.75 31.8313 6.17025 33.25 7.91667 33.25H30.0833C30.9232 33.25 31.7286 32.9164 32.3225 32.3225C32.9164 31.7286 33.25 30.9232 33.25 30.0833V16.359L30.0833 19.5257V30.0833Z" fill="white"/>
</svg>
