<svg width="35" height="35" viewBox="0 0 35 35" fill="none" xmlns="http://www.w3.org/2000/svg">
<path d="M11.678 21.4342L11.6781 21.4343C13.1212 23.1754 15.2489 24.1625 17.5 24.1625C19.7514 24.1625 21.8782 23.1649 23.319 21.4332C23.8644 20.7787 24.8404 20.6948 25.4938 21.2376C26.1472 21.7838 26.2394 22.7545 25.6884 23.403L25.6878 23.4038C23.6587 25.842 20.6688 27.2458 17.5 27.2458C14.3312 27.2458 11.3379 25.8419 9.31229 23.4039C8.77291 22.7486 8.85689 21.7795 9.50913 21.2338C10.1634 20.6959 11.1346 20.7771 11.678 21.4342ZM25.0556 14.2188C25.0556 15.3768 24.1222 16.3062 22.9688 16.3062C21.8072 16.3062 20.8799 15.3769 20.8799 14.2188C20.8799 13.0606 21.8072 12.1313 22.9688 12.1313C24.1222 12.1313 25.0556 13.0607 25.0556 14.2188ZM14.0586 14.2188C14.0586 15.3769 13.1313 16.3062 11.9697 16.3062C10.8746 16.3062 9.88291 15.375 9.88291 14.2188C9.88291 13.0607 10.8163 12.1313 11.9697 12.1313C13.1313 12.1313 14.0586 13.0606 14.0586 14.2188ZM0.1 17.5C0.1 7.88921 7.88921 0.1 17.5 0.1C27.1108 0.1 34.9 7.88921 34.9 17.5C34.9 27.1108 27.1108 34.9 17.5 34.9C7.88921 34.9 0.1 27.1108 0.1 17.5ZM3.18125 17.5C3.18125 25.3954 9.60395 31.8188 17.5 31.8188C25.3961 31.8188 31.8188 25.3954 31.8188 17.5C31.8188 9.60464 25.3961 3.18125 17.5 3.18125C9.60395 3.18125 3.18125 9.60464 3.18125 17.5Z" fill="#8F8F8F" stroke="white" stroke-width="0.2"/>
</svg>
