<svg width="17" height="17" viewBox="0 0 17 17" fill="none" xmlns="http://www.w3.org/2000/svg">
<path d="M15.7191 6.87229L16.6706 7.17984L15.7191 6.87229C15.5375 7.43418 15.2035 8.09264 14.6862 8.85165C14.1692 9.61015 13.4589 10.4866 12.5444 11.4833C11.6253 12.4851 10.4558 13.6838 9.03287 15.0811C9.03253 15.0815 9.03218 15.0818 9.03184 15.0821L8.5 15.6018L7.96816 15.0821C7.96785 15.0818 7.96754 15.0815 7.96723 15.0812C6.54423 13.6838 5.37474 12.4851 4.4556 11.4833C3.54106 10.4866 2.83079 9.61015 2.31382 8.85165L1.4875 9.41485L2.31382 8.85165C1.7965 8.09264 1.46252 7.43418 1.28091 6.87229C1.09327 6.29174 1 5.70066 1 5.09537C1 3.86731 1.36975 2.9045 2.0756 2.13519C2.77683 1.37091 3.6207 1 4.675 1C5.25129 1 5.79705 1.13132 6.3243 1.40031L6.77875 0.509537L6.3243 1.40031C6.85372 1.67041 7.31525 2.05245 7.71145 2.56047L8.5 3.5716L9.28855 2.56047C9.68475 2.05245 10.1463 1.67041 10.6757 1.40031C11.203 1.13132 11.7487 1 12.325 1C13.3793 1 14.2232 1.37091 14.9244 2.13519C15.6302 2.9045 16 3.86731 16 5.09537C16 5.70066 15.9067 6.29174 15.7191 6.87229Z" stroke="#929292" stroke-width="2"/>
</svg>
