<svg width="20" height="14" viewBox="0 0 20 14" fill="none" xmlns="http://www.w3.org/2000/svg">
<g clip-path="url(#clip0_765_268)">
<path d="M15.7032 3.7568C15.5887 5.25568 14.4102 6.41034 13.1251 6.41034C11.8399 6.41034 10.6594 5.25605 10.5469 3.7568C10.4297 2.19749 11.577 1.10327 13.1251 1.10327C14.6731 1.10327 15.8204 2.22586 15.7032 3.7568Z" stroke="#8F8F8F" stroke-width="1.5" stroke-linecap="round" stroke-linejoin="round"/>
<path d="M13.125 8.76904C10.5793 8.76904 8.13122 9.96203 7.51794 12.2853C7.43669 12.5927 7.64098 12.8968 7.97575 12.8968H18.2746C18.6093 12.8968 18.8125 12.5927 18.7324 12.2853C18.1191 9.9248 15.6711 8.76904 13.125 8.76904Z" stroke="#8F8F8F" stroke-width="1.5" stroke-miterlimit="10"/>
<path d="M7.81251 4.41807C7.7211 5.61511 6.76876 6.55785 5.74219 6.55785C4.71563 6.55785 3.76173 5.61548 3.67188 4.41807C3.57852 3.17275 4.50548 2.28271 5.74219 2.28271C6.97891 2.28271 7.90587 3.1956 7.81251 4.41807Z" stroke="#8F8F8F" stroke-width="1.5" stroke-linecap="round" stroke-linejoin="round"/>
<path d="M8.04689 8.84264C7.34181 8.53785 6.56525 8.42065 5.7422 8.42065C3.71095 8.42065 1.75392 9.37335 1.26369 11.229C1.19923 11.4744 1.36252 11.7173 1.6297 11.7173H6.01564" stroke="#8F8F8F" stroke-width="1.5" stroke-miterlimit="10" stroke-linecap="round"/>
</g>
<defs>
<clipPath id="clip0_765_268">
<rect width="20" height="14" fill="white"/>
</clipPath>
</defs>
</svg>
