<svg width="11" height="14" viewBox="0 0 11 14" fill="none" xmlns="http://www.w3.org/2000/svg">
<path d="M1.56491 7.22461L5.49998 3.20215L9.43592 7.22754C9.61352 7.40918 9.84842 7.5 10.0833 7.5C10.3182 7.5 10.5525 7.40845 10.7313 7.22534C11.0894 6.85913 11.0894 6.26587 10.7313 5.89966L6.14795 1.21216C5.78988 0.845947 5.2098 0.845947 4.85173 1.21216L0.268395 5.89966C-0.0896777 6.26587 -0.0896777 6.85913 0.268395 7.22534C0.626468 7.59155 1.20683 7.59082 1.56491 7.22461ZM6.14738 6.83789C5.78931 6.47168 5.20923 6.47168 4.85116 6.83789L0.267822 11.5254C-0.0902506 11.8916 -0.0902506 12.4849 0.267822 12.8511C0.625895 13.2173 1.20597 13.2173 1.56405 12.8511L5.49998 8.82715L9.43592 12.8525C9.61352 13.0342 9.84842 13.125 10.0833 13.125C10.3182 13.125 10.5525 13.0334 10.7313 12.8503C11.0894 12.4841 11.0894 11.8909 10.7313 11.5247L6.14738 6.83789Z" fill="black"/>
</svg>
