<svg width="25" height="25" viewBox="0 0 25 25" fill="none" xmlns="http://www.w3.org/2000/svg">
<path d="M18.4997 16.935C17.1468 18.4095 15.426 20.1732 13.3328 22.2288C13.3324 22.2292 13.332 22.2296 13.3316 22.23L12.5 23.0426L11.6684 22.23C11.668 22.2296 11.6676 22.2292 11.6672 22.2288C9.57398 20.1732 7.85316 18.4095 6.50034 16.935C5.15398 15.4676 4.10711 14.176 3.34435 13.0569C2.5811 11.9371 2.08627 10.9626 1.81652 10.128C1.53832 9.26728 1.4 8.39073 1.4 7.49319C1.4 5.67146 1.94915 4.23796 3.00034 3.09226C4.04506 1.9536 5.30497 1.4 6.875 1.4C7.73381 1.4 8.54737 1.59584 9.33252 1.9964C10.1207 2.39851 10.8074 2.96716 11.396 3.72199L12.5 5.13757L13.604 3.72199C14.1926 2.96716 14.8793 2.39851 15.6675 1.9964C16.4526 1.59584 17.2662 1.4 18.125 1.4C19.695 1.4 20.9549 1.9536 21.9997 3.09226C23.0508 4.23796 23.6 5.67146 23.6 7.49319C23.6 8.39073 23.4617 9.26729 23.1835 10.128C22.9137 10.9626 22.4189 11.9371 21.6556 13.0569C20.8929 14.176 19.846 15.4676 18.4997 16.935Z" stroke="#8F8F8F" stroke-width="2.8"/>
</svg>
