<svg width="38" height="51" viewBox="0 0 38 51" fill="none" xmlns="http://www.w3.org/2000/svg">
<path d="M35.5115 12.132C36.5471 13.0088 36.5424 14.6099 35.4992 15.4776C34.8337 16.0316 34.1642 16.581 33.5026 17.1398C33.3469 17.2718 33.2528 17.3232 33.0568 17.1541C31.4151 15.7431 29.7583 14.3504 28.1056 12.9529C25.6853 10.9081 23.2642 8.86402 20.8431 6.81997C20.5198 6.54727 20.1839 6.28801 19.8701 6.00503C19.7483 5.89516 19.6764 5.88726 19.5523 5.99318C18.2204 7.1314 16.8862 8.26646 15.5496 9.39914C14.3189 10.4425 13.0834 11.4803 11.8527 12.5237C10.494 13.6762 9.13838 14.8318 7.78042 15.9858C7.3795 16.3257 7.37629 16.9428 7.77739 17.2826C9.68303 18.8966 11.5774 20.5008 13.4723 22.1037C13.9078 22.4721 14.3457 22.838 14.79 23.1953C14.9204 23.3004 14.9307 23.366 14.7971 23.4751C13.8343 24.2624 12.8566 25.0299 11.9096 25.8369C11.5611 26.1333 11.1967 26.4116 10.8528 26.7135C10.7461 26.8076 10.6837 26.8305 10.5612 26.7262C9.14708 25.52 7.72825 24.3185 6.30706 23.1202C4.72067 21.782 3.1319 20.4462 1.54156 19.1127C0.872853 18.5523 0.328244 17.92 0.180433 17.0173C-0.0258691 15.7566 0.363814 14.7148 1.31786 13.884C2.22923 13.0897 3.15324 12.3087 4.0733 11.5246C5.33878 10.4465 6.60821 9.37306 7.8729 8.29491C9.27433 7.10057 10.6726 5.90149 12.0732 4.70636C13.2265 3.72227 14.3813 2.74056 15.5369 1.75884C15.9037 1.44741 16.2578 1.1178 16.6467 0.835619C17.6236 0.126603 18.7216 -0.0773285 19.9183 0.024637C21.1292 0.128183 22.0564 0.734444 22.9361 1.49721C24.2751 2.65756 25.6394 3.79025 26.9926 4.93479C28.202 5.9584 29.4105 6.98359 30.6215 8.0064C31.6957 8.91382 32.7738 9.81728 33.848 10.7247C34.4022 11.1931 34.956 11.6617 35.5115 12.132Z" fill="#3D00FF"/>
<path d="M30.3296 34.5134C30.415 34.4371 30.4222 34.3058 30.3347 34.2319C28.3519 32.556 26.3847 30.8938 24.416 29.2304C23.4462 28.411 23.4508 26.9105 24.4314 26.104C25.1673 25.4986 25.9095 24.9002 26.6407 24.2884C26.7663 24.1833 26.8304 24.1817 26.956 24.2884C28.6887 25.7578 30.4284 27.2193 32.1634 28.6856C33.5316 29.8428 34.907 30.9921 36.2594 32.1674C37.8126 33.5175 37.7241 35.8611 36.1266 37.1669C34.9457 38.132 33.8043 39.1446 32.6448 40.135C31.5295 41.0874 30.4142 42.0391 29.2973 42.99C28.1504 43.967 27.0027 44.9432 25.8558 45.9209C24.6867 46.9169 23.5193 47.9152 22.3494 48.9103C21.8554 49.3308 21.378 49.7751 20.8563 50.1576C19.8659 50.884 18.7443 51.0872 17.5278 50.9694C16.3666 50.8564 15.4616 50.292 14.6151 49.5522C13.5409 48.6139 12.4422 47.7025 11.3529 46.7817C10.0147 45.6498 8.67497 44.5195 7.33519 43.3892C6.10924 42.3545 4.8817 41.3222 3.65732 40.2859C2.57601 39.3714 1.49786 38.4529 0.418136 37.5368C0.204144 37.3547 0.199249 37.0269 0.414558 36.8464C0.715593 36.594 1.01211 36.3454 1.30974 36.0982C2.19423 35.3631 3.08267 34.6328 3.96242 33.8922C4.14738 33.7364 4.25489 33.6898 4.48095 33.8842C6.06181 35.2438 7.66638 36.5757 9.2591 37.9218C11.1016 39.4781 12.9378 41.0416 14.7795 42.5995C15.7264 43.401 16.6797 44.1938 17.625 44.9977C17.7562 45.1092 17.8337 45.1107 17.9673 44.9961C19.6145 43.5899 21.2697 42.1925 22.9209 40.7902C24.286 39.6307 25.6463 38.4656 27.013 37.3076C28.1156 36.3725 29.2238 35.4446 30.3296 34.5134Z" fill="#3D00FF"/>
<path d="M30.5264 19.5422C31.1089 19.06 31.693 18.5803 32.2851 18.0918C32.1934 18.0222 32.127 17.9661 32.0566 17.9179C31.7507 17.7045 31.4456 17.4903 31.1358 17.2832C28.2879 15.3845 25.2147 14.0693 21.7787 13.7278C20.5416 13.6053 19.2999 13.6519 18.0723 13.8456C16.4891 14.0946 14.9738 14.5744 13.5495 15.3189C12.9804 15.6169 12.4255 15.9402 11.8943 16.371C13.5914 16.0556 15.2465 15.813 16.9396 15.956C18.07 16.0509 19.1631 16.2667 20.1994 16.7346C21.0625 17.1243 21.9284 17.8282 22.4991 18.5981C20.7601 20.032 18.9213 21.587 17.1855 23.024C15.7698 24.197 14.3462 25.3606 12.929 26.5312C11.0383 28.0923 9.14995 29.6566 7.26083 31.22C6.58027 31.7836 5.89891 32.3472 5.21045 32.9163C5.97005 33.4688 6.72729 33.9739 7.50902 34.4434C10.0376 35.9618 12.7417 36.9751 15.6884 37.2716C16.8732 37.3909 18.0581 37.3387 19.2422 37.1696C20.6231 36.972 21.9454 36.5942 23.2157 36.0298C24.0519 35.6583 24.8503 35.2157 25.6107 34.626C23.9073 34.939 22.249 35.188 20.5511 35.0418C19.5149 34.9524 18.5071 34.7691 17.5451 34.3738C16.5966 33.9842 15.6371 33.3865 15.0056 32.5581C16.8078 31.0618 19.616 28.5563 21.4214 27.0624C22.9224 25.8206 24.4298 24.5859 25.9316 23.3458C27.465 22.0795 28.9945 20.8101 30.5264 19.5422Z" fill="black"/>
</svg>
