<svg width="16" height="16" viewBox="0 0 16 16" fill="none" xmlns="http://www.w3.org/2000/svg">
<path d="M12.9224 15.9948H16C16 7.17778 8.82275 0 0.00104552 0V3.06723C7.12494 3.06723 12.9224 8.86717 12.9224 15.9948ZM2.13194 16C3.31193 16 4.26492 15.0529 4.26492 13.8789C4.26492 12.7111 3.31193 11.7535 2.13194 11.7535C0.957176 11.7535 0.00209204 12.7111 0.00209204 13.8789C0.00104594 15.0529 0.95613 16 2.13194 16ZM7.48375 15.9958H10.5645C10.5645 10.1729 5.82465 5.43613 0 5.43613V8.50232C1.99804 8.50232 3.87578 9.28219 5.2901 10.6977C6.70441 12.1079 7.48375 13.9928 7.48375 15.9958Z" fill="#8F8F8F"/>
</svg>
