<svg width="14" height="13" viewBox="0 0 14 13" fill="none" xmlns="http://www.w3.org/2000/svg">
<path d="M8.01121 12.2485C7.91512 12.2483 7.8214 12.2187 7.7426 12.1637L3.03015 8.86497C2.96773 8.82166 2.9167 8.76391 2.88141 8.69662C2.84613 8.62934 2.82764 8.55452 2.82751 8.47855V3.76609C2.82764 3.69012 2.84613 3.6153 2.88141 3.54802C2.9167 3.48073 2.96773 3.42298 3.03015 3.37967L7.7426 0.0809575C7.8113 0.0344721 7.89105 0.00694256 7.97379 0.00115046C8.05654 -0.00464163 8.13934 0.0115089 8.21385 0.0479702C8.29332 0.0858144 8.36061 0.145163 8.40809 0.21929C8.45556 0.293417 8.48132 0.379359 8.48246 0.467378V11.7773C8.48264 11.8638 8.45899 11.9487 8.4141 12.0227C8.36921 12.0967 8.30482 12.1569 8.22798 12.1967C8.16091 12.231 8.08657 12.2488 8.01121 12.2485ZM3.77 8.2335L7.53997 10.8725V1.37217L3.77 4.01114V8.2335Z" fill="#101820"/>
<path d="M3.29872 8.94986H1.41374C1.03879 8.94986 0.6792 8.80092 0.414074 8.53579C0.148947 8.27066 0 7.91107 0 7.53613V4.70866C0 4.33371 0.148947 3.97412 0.414074 3.709C0.6792 3.44387 1.03879 3.29492 1.41374 3.29492H3.29872C3.4237 3.29492 3.54356 3.34457 3.63194 3.43295C3.72031 3.52132 3.76996 3.64119 3.76996 3.76617V8.47862C3.76996 8.6036 3.72031 8.72346 3.63194 8.81184C3.54356 8.90022 3.4237 8.94986 3.29872 8.94986ZM1.41374 4.23741C1.28875 4.23741 1.16889 4.28706 1.08051 4.37544C0.992139 4.46381 0.94249 4.58368 0.94249 4.70866V7.53613C0.94249 7.66111 0.992139 7.78097 1.08051 7.86935C1.16889 7.95773 1.28875 8.00737 1.41374 8.00737H2.82747V4.23741H1.41374Z" fill="#101820"/>
<path d="M10.0014 3.78961L9.33496 4.45605L13.3336 8.4547L14.0001 7.78826L10.0014 3.78961Z" fill="#101820"/>
<path d="M13.3336 3.78944L9.33496 7.78809L10.0014 8.45453L14.0001 4.45588L13.3336 3.78944Z" fill="#101820"/>
</svg>
