<svg width="23" height="25" viewBox="0 0 23 25" fill="none" xmlns="http://www.w3.org/2000/svg">
<path d="M22.7107 19.2726C22.6754 19.251 19.215 17.0843 19.215 12.1277C19.215 5.08273 15.6323 2.95861 13.3266 2.32149C13.3036 1.84508 13.1011 1.39592 12.761 1.06703C12.421 0.738129 11.9695 0.554687 11.5 0.554688C11.0305 0.554688 10.579 0.738129 10.2389 1.06703C9.89889 1.39592 9.69639 1.84508 9.67334 2.32149C7.36764 2.95861 3.78492 5.08273 3.78492 12.1277C3.78492 17.0656 0.323799 19.2513 0.288898 19.273C0.234679 19.3062 0.189819 19.353 0.158665 19.409C0.127511 19.465 0.111121 19.5282 0.111084 19.5925V21.0855C0.111084 21.3824 0.227203 21.6672 0.433896 21.8772C0.64059 22.0872 0.920926 22.2052 1.21323 22.2052H8.95768C9.04552 22.8266 9.35093 23.395 9.81789 23.8061C10.2848 24.2173 10.8821 24.4436 11.5 24.4436C12.1179 24.4436 12.7151 24.2173 13.1821 23.8061C13.649 23.395 13.9544 22.8266 14.0423 22.2052H21.7867C22.079 22.2052 22.3594 22.0872 22.566 21.8772C22.7727 21.6672 22.8889 21.3824 22.8889 21.0855V19.5925C22.8889 19.5281 22.8724 19.4648 22.8412 19.4087C22.81 19.3527 22.765 19.3058 22.7107 19.2726ZM11.5 1.30366C11.7451 1.30452 11.9829 1.38837 12.1759 1.54195C12.3688 1.69553 12.5059 1.91008 12.5654 2.15166C12.2135 2.08889 11.8572 2.05495 11.5 2.05014C11.1427 2.05495 10.7865 2.08889 10.4346 2.15166C10.494 1.91008 10.6311 1.69553 10.8241 1.54195C11.017 1.38837 11.2549 1.30452 11.5 1.30366ZM11.5 23.6981C11.0767 23.6976 10.6665 23.5488 10.3386 23.2769C10.0107 23.0049 9.78506 22.6264 9.69979 22.2052H13.3002C13.2149 22.6264 12.9893 23.0049 12.6614 23.2769C12.3335 23.5488 11.9233 23.6976 11.5 23.6981ZM22.1541 21.0855C22.1541 21.1844 22.1154 21.2794 22.0465 21.3494C21.9776 21.4194 21.8841 21.4587 21.7867 21.4587H1.21323C1.1158 21.4587 1.02235 21.4194 0.953455 21.3494C0.884557 21.2794 0.845851 21.1844 0.845851 21.0855V19.9657H20.3172C20.4146 19.9657 20.5081 19.9264 20.577 19.8564C20.6459 19.7864 20.6846 19.6915 20.6846 19.5925C20.6846 19.4935 20.6459 19.3986 20.577 19.3286C20.5081 19.2586 20.4146 19.2192 20.3172 19.2192H1.55049C2.51475 18.3208 3.27861 17.2232 3.79074 16C4.30287 14.7768 4.55141 13.4565 4.51969 12.1277C4.51969 3.05789 10.7854 2.79662 11.5 2.79662C12.2145 2.79662 18.4803 3.05789 18.4803 12.1277C18.4803 16.8954 21.3874 19.2566 22.1541 19.794V21.0855Z" fill="black"/>
<path d="M16.6673 9.38227C16.717 9.36964 16.7638 9.34734 16.8049 9.31663C16.846 9.28592 16.8807 9.2474 16.9069 9.20329C16.9331 9.15918 16.9504 9.11033 16.9578 9.05954C16.9651 9.00875 16.9624 8.95701 16.9497 8.90727C16.4419 6.91743 15.4677 5.43696 14.0505 4.50766C13.9638 4.45068 13.8581 4.43046 13.7565 4.45145C13.6549 4.47244 13.5659 4.53292 13.5089 4.61958C13.4519 4.70624 13.4317 4.81199 13.4527 4.91356C13.4737 5.01513 13.5341 5.1042 13.6208 5.16118C14.8708 5.98149 15.7341 7.30532 16.1907 9.10024C16.2163 9.20063 16.2807 9.28674 16.3698 9.33963C16.4589 9.39252 16.5653 9.40786 16.6657 9.38227H16.6673Z" fill="black"/>
<path d="M17.3516 10.1367H16.5703V10.918H17.3516V10.1367Z" fill="black"/>
</svg>
