<svg width="17" height="17" viewBox="0 0 17 17" fill="none" xmlns="http://www.w3.org/2000/svg">
<path d="M0.192657 13.5176C0.123924 13.2183 0.0818367 12.9037 0.0545165 12.5693C0.0265199 12.2267 0.0128748 11.8427 0.00622559 11.4121L2.2192 10.0437L2.29347 9.99765C2.60485 9.8043 2.91802 9.60985 3.27083 9.51909C3.57881 9.43987 3.89961 9.42367 4.214 9.47148C4.57416 9.52625 4.90532 9.68818 5.23458 9.84919L5.31312 9.88753L5.81212 10.1304C6.3121 10.3737 6.37173 10.3899 6.41157 10.3951C6.47881 10.404 6.54716 10.3983 6.61199 10.3783C6.65039 10.3665 6.70651 10.3407 7.15904 10.0175L9.52547 8.32792L9.61341 8.26493C9.97633 8.00458 10.3405 7.74332 10.7608 7.63117C11.1268 7.5335 11.5109 7.52533 11.8808 7.60736C12.3054 7.70155 12.6804 7.94709 13.054 8.19179L13.1446 8.25098L16.9991 10.7629C16.9967 11.4669 16.9867 12.0631 16.9453 12.5693C16.9345 12.7013 16.9214 12.8302 16.9053 12.9563L12.1133 9.8335C11.5819 9.48723 11.5152 9.46106 11.4718 9.45144C11.3978 9.43503 11.321 9.43666 11.2478 9.4562C11.2048 9.46766 11.1392 9.49664 10.6231 9.86518L8.25664 11.5548L8.17993 11.6097C7.86001 11.8391 7.53847 12.0697 7.16688 12.1839C6.84275 12.2835 6.50097 12.3121 6.16478 12.2678C5.77937 12.217 5.42395 12.0432 5.07033 11.8702L4.98556 11.8288L4.48656 11.586C4.02226 11.36 3.96747 11.3446 3.93004 11.3389C3.86716 11.3293 3.803 11.3326 3.7414 11.3484C3.70474 11.3579 3.65177 11.3787 3.21259 11.6503L0.192657 13.5176Z" fill="#929292"/>
<path d="M7.55547 5.66672C7.55547 6.70993 6.70978 7.55561 5.66658 7.55561C4.62337 7.55561 3.77769 6.70993 3.77769 5.66672C3.77769 4.62352 4.62337 3.77783 5.66658 3.77783C6.70978 3.77783 7.55547 4.62352 7.55547 5.66672Z" fill="#929292"/>
<path fill-rule="evenodd" clip-rule="evenodd" d="M6.94846 2.47876e-07H10.0515C11.0751 -9.20939e-06 11.9007 -1.67543e-05 12.5693 0.0546062C13.2576 0.110847 13.8622 0.22967 14.4216 0.514692C15.3102 0.967427 16.0326 1.68984 16.4853 2.57838C16.7703 3.13776 16.8892 3.74239 16.9454 4.43074C17 5.09929 17 5.92487 17 6.94844V10.0516C17 11.0751 17 11.9007 16.9454 12.5693C16.8892 13.2576 16.7703 13.8622 16.4853 14.4216C16.0326 15.3102 15.3102 16.0326 14.4216 16.4853C13.8622 16.7703 13.2576 16.8892 12.5693 16.9454C11.9007 17 11.0751 17 10.0516 17H6.94844C5.92487 17 5.09929 17 4.43074 16.9454C3.74239 16.8892 3.13776 16.7703 2.57838 16.4853C1.68984 16.0326 0.967427 15.3102 0.514692 14.4216C0.22967 13.8622 0.110847 13.2576 0.0546062 12.5693C-1.67543e-05 11.9007 -9.20939e-06 11.0751 2.47876e-07 10.0515V6.94846C-9.20939e-06 5.92489 -1.67543e-05 5.0993 0.0546062 4.43074C0.110847 3.74239 0.22967 3.13776 0.514692 2.57838C0.967427 1.68984 1.68984 0.967427 2.57838 0.514692C3.13776 0.22967 3.74239 0.110847 4.43074 0.0546062C5.0993 -1.67543e-05 5.92489 -9.20939e-06 6.94846 2.47876e-07ZM4.58456 1.93722C4.01301 1.98392 3.68464 2.07097 3.43592 2.1977C2.90279 2.46935 2.46935 2.90279 2.1977 3.43592C2.07097 3.68464 1.98392 4.01301 1.93722 4.58456C1.88962 5.16713 1.88889 5.91543 1.88889 6.98889V10.0111C1.88889 11.0846 1.88962 11.8329 1.93722 12.4154C1.98392 12.987 2.07097 13.3154 2.1977 13.5641C2.46935 14.0972 2.90279 14.5307 3.43592 14.8023C3.68464 14.929 4.01301 15.0161 4.58456 15.0628C5.16713 15.1104 5.91543 15.1111 6.98889 15.1111H10.0111C11.0846 15.1111 11.8329 15.1104 12.4154 15.0628C12.987 15.0161 13.3154 14.929 13.5641 14.8023C14.0972 14.5307 14.5307 14.0972 14.8023 13.5641C14.929 13.3154 15.0161 12.987 15.0628 12.4154C15.1104 11.8329 15.1111 11.0846 15.1111 10.0111V6.98889C15.1111 5.91543 15.1104 5.16713 15.0628 4.58456C15.0161 4.01301 14.929 3.68464 14.8023 3.43592C14.5307 2.90279 14.0972 2.46935 13.5641 2.1977C13.3154 2.07097 12.987 1.98392 12.4154 1.93722C11.8329 1.88962 11.0846 1.88889 10.0111 1.88889H6.98889C5.91543 1.88889 5.16713 1.88962 4.58456 1.93722Z" fill="#929292"/>
</svg>
