<svg width="23" height="23" viewBox="0 0 23 23" fill="none" xmlns="http://www.w3.org/2000/svg">
<path d="M0.497766 11.6117C0.497765 11.9435 0.580707 12.1923 0.829529 12.4411C1.07835 12.6899 1.32717 12.7729 1.65893 12.7729L10.4506 12.7729L10.4506 21.5646C10.4506 21.8963 10.6165 22.2281 10.7824 22.394C10.9483 22.5599 11.2801 22.7257 11.6118 22.7257C12.2753 22.7257 12.773 22.2281 12.773 21.5646L12.773 12.7729L21.5647 12.7729C22.2282 12.7729 22.7259 12.2752 22.7259 11.6117C22.7259 10.9482 22.2282 10.4505 21.5647 10.4505L12.773 10.4505L12.773 1.65881C12.773 0.995288 12.2753 0.497644 11.6118 0.497644C10.9483 0.497644 10.4506 0.995288 10.4506 1.65881L10.4506 10.4505L1.65894 10.4505C0.995411 10.4505 0.497765 10.9482 0.497766 11.6117Z" fill="#3D00FF"/>
</svg>
