<svg width="19" height="4" viewBox="0 0 19 4" fill="none" xmlns="http://www.w3.org/2000/svg">
<path d="M18.0758 2.00244C18.0758 0.902441 17.1726 0.00244141 16.0686 0.00244141C14.9646 0.00244141 14.0614 0.902441 14.0614 2.00244C14.0614 3.10244 14.9646 4.00244 16.0686 4.00244C17.1726 4.00244 18.0758 3.10244 18.0758 2.00244ZM4.02528 2.00244C4.02528 0.902441 3.12204 0.00244141 2.01807 0.00244141C0.914097 0.00244141 0.0108488 0.902441 0.0108488 2.00244C0.0108488 3.10244 0.914097 4.00244 2.01807 4.00244C3.12204 4.00244 4.02528 3.10244 4.02528 2.00244ZM11.0505 2.00244C11.0505 0.902441 10.1473 0.00244141 9.04333 0.00244141C7.93936 0.00244141 7.03611 0.902441 7.03611 2.00244C7.03611 3.10244 7.93936 4.00244 9.04333 4.00244C10.1473 4.00244 11.0505 3.10244 11.0505 2.00244Z" fill="#8F8F8F"/>
</svg>
