<svg width="14" height="13" viewBox="0 0 14 13" fill="none" xmlns="http://www.w3.org/2000/svg">
<path d="M13.6047 5.0838L11.5484 1.45251C11.0343 0.50838 10.0796 0 8.97802 0H5.01227C3.91067 0 2.95595 0.581006 2.44187 1.45251L0.385559 5.0838C-0.12852 5.95531 -0.12852 7.04469 0.385559 7.9162L2.44187 11.5475C2.95595 12.4916 3.91067 13 5.01227 13H9.05146C10.0796 13 11.1078 12.419 11.6219 11.5475L13.6782 7.9162C14.1188 7.11732 14.1188 5.95531 13.6047 5.0838ZM12.3563 7.26257L10.2999 10.8939C10.0062 11.3296 9.56554 11.6201 9.05146 11.6201H5.01227C4.49819 11.6201 3.98411 11.3296 3.76379 10.8939L1.70748 7.26257C1.48716 6.82682 1.48716 6.24581 1.70748 5.81006L3.76379 2.17877C4.05755 1.74302 4.49819 1.45251 5.01227 1.45251H9.05146C9.56554 1.45251 10.0796 1.74302 10.2999 2.17877L12.3563 5.81006C12.5766 6.24581 12.5766 6.82682 12.3563 7.26257Z" fill="#E64646"/>
<path d="M7.00005 2.88867C6.58005 2.88867 6.30005 3.17756 6.30005 3.61089V7.22201C6.30005 7.65534 6.58005 7.94423 7.00005 7.94423C7.42005 7.94423 7.70005 7.65534 7.70005 7.22201V3.61089C7.70005 3.17756 7.42005 2.88867 7.00005 2.88867Z" fill="#E64646"/>
<path d="M7.00005 10.1124C7.38665 10.1124 7.70005 9.78906 7.70005 9.39019C7.70005 8.99132 7.38665 8.66797 7.00005 8.66797C6.61345 8.66797 6.30005 8.99132 6.30005 9.39019C6.30005 9.78906 6.61345 10.1124 7.00005 10.1124Z" fill="#E64646"/>
</svg>
