<svg width="18" height="17" viewBox="0 0 18 17" fill="none" xmlns="http://www.w3.org/2000/svg">
<path fill-rule="evenodd" clip-rule="evenodd" d="M9.88568 9.76997C10.1636 9.49334 10.6142 9.49334 10.8921 9.76997L14.8061 13.6658C15.084 13.9424 15.084 14.3909 14.8061 14.6675C14.5282 14.9442 14.0776 14.9442 13.7997 14.6675L9.88568 10.7717C9.60777 10.4951 9.60777 10.0466 9.88568 9.76997Z" fill="white"/>
<path fill-rule="evenodd" clip-rule="evenodd" d="M7.18646 3.54167C5.22131 3.54167 3.62824 5.12732 3.62824 7.08333C3.62824 9.03934 5.22131 10.625 7.18646 10.625C9.15161 10.625 10.7447 9.03934 10.7447 7.08333C10.7447 5.12732 9.15161 3.54167 7.18646 3.54167ZM2.20496 7.08333C2.20496 4.34492 4.43525 2.125 7.18646 2.125C9.93767 2.125 12.168 4.34492 12.168 7.08333C12.168 9.82175 9.93767 12.0417 7.18646 12.0417C4.43525 12.0417 2.20496 9.82175 2.20496 7.08333Z" fill="white"/>
</svg>
