<svg width="23" height="23" viewBox="0 0 23 23" fill="none" xmlns="http://www.w3.org/2000/svg">
<path d="M22.2184 21.5614L17.3434 16.6552C20.8434 12.7489 20.5622 6.74892 16.6559 3.21767C12.7497 -0.313576 6.74966 -0.00107634 3.21841 3.90517C-0.312844 7.81142 -0.000343919 13.8114 3.90591 17.3427C7.53091 20.6239 13.0622 20.6239 16.6872 17.3427L21.5934 22.2489L22.2184 21.5614ZM10.2809 18.8427C5.56216 18.8427 1.71841 14.9989 1.71841 10.2802C1.71841 5.53017 5.56216 1.71767 10.2809 1.71767C14.9997 1.71767 18.8434 5.56142 18.8434 10.2802C18.8434 14.9989 14.9997 18.8427 10.2809 18.8427Z" fill="black"/>
<path d="M10.281 2.99805V3.93555C13.781 3.93555 16.6248 6.7793 16.6248 10.2793H17.5623C17.5623 6.24805 14.3123 2.99805 10.281 2.99805Z" fill="black"/>
</svg>
