<svg width="25" height="25" viewBox="0 0 25 25" fill="none" xmlns="http://www.w3.org/2000/svg">
<path d="M12.3643 0.0150868C10.966 0.120695 9.86731 1.52377 9.86731 3.24367V6.44208H9.84234C6.84456 7.19576 4.18499 9.26728 2.37895 12.2553C0.572909 15.2433 -0.251026 18.935 0.0667852 22.6152C0.0887213 22.8863 0.177665 23.1433 0.322054 23.3526C0.466442 23.5618 0.659594 23.7138 0.876398 23.7886C1.0932 23.8635 1.32363 23.8578 1.53772 23.7723C1.7518 23.6868 1.93965 23.5254 2.07683 23.3092L2.31404 22.9471C4.13801 20.2463 6.74544 18.4874 9.60513 18.0288L9.85483 17.9835L9.86731 21.7552C9.86714 22.3642 10.0088 22.9609 10.2761 23.4771C10.5435 23.9933 10.9256 24.4081 11.3789 24.6741C11.8322 24.9401 12.3384 25.0466 12.8394 24.9813C13.3404 24.916 13.8161 24.6816 14.212 24.3049L23.9751 15.0416C24.2945 14.738 24.5527 14.3508 24.7302 13.9092C24.9078 13.4675 25 12.9829 25 12.4919C25 12.0009 24.9078 11.5163 24.7302 11.0746C24.5527 10.6329 24.2945 10.2458 23.9751 9.94222L14.212 0.693994C13.7376 0.241389 13.1508 0 12.5515 0L12.3643 0.0150868ZM12.5515 2.71563C12.6514 2.71563 12.7388 2.76089 12.8262 2.82124L22.5893 12.0846C22.6412 12.134 22.6832 12.197 22.7121 12.2688C22.7409 12.3407 22.7559 12.4196 22.7559 12.4994C22.7559 12.5793 22.7409 12.6582 22.7121 12.73C22.6832 12.8019 22.6412 12.8649 22.5893 12.9143L12.8262 22.1626C12.7614 22.2259 12.683 22.2655 12.6001 22.2767C12.5173 22.288 12.4336 22.2703 12.3588 22.2259C12.284 22.1815 12.2212 22.1122 12.178 22.0261C12.1347 21.94 12.1127 21.8408 12.1146 21.7401V16.5653C12.1146 16.3845 12.0847 16.2054 12.0267 16.0387C11.9687 15.8719 11.8837 15.7209 11.7767 15.5944C11.6697 15.4679 11.5429 15.3685 11.4036 15.3021C11.2644 15.2357 11.1156 15.2035 10.966 15.2075H10.6788L10.2543 15.2377C7.40782 15.4489 4.76105 16.7162 2.61367 18.7982L2.40143 19.0245L2.4264 18.8133C2.82581 16.2688 3.88387 13.9434 5.4479 12.1727C7.01194 10.402 9.00107 9.27751 11.1283 8.96158C11.4019 8.92087 11.6536 8.76003 11.8354 8.50967C12.0173 8.25931 12.1166 7.93689 12.1146 7.60376V3.24367C12.1146 2.94193 12.3143 2.71563 12.5515 2.71563Z" fill="#8F8F8F"/>
</svg>
