<svg width="14" height="13" viewBox="0 0 14 13" fill="none" xmlns="http://www.w3.org/2000/svg">
<path d="M7.93469 12.1314C7.83952 12.1312 7.74669 12.1019 7.66865 12.0474L3.00124 8.78024C2.93941 8.73734 2.88887 8.68014 2.85392 8.6135C2.81898 8.54686 2.80066 8.47276 2.80054 8.39751V3.7301C2.80066 3.65485 2.81898 3.58075 2.85392 3.51411C2.88887 3.44747 2.93941 3.39026 3.00124 3.34737L7.66865 0.0801837C7.73669 0.0341426 7.81567 0.0068762 7.89763 0.00113947C7.97958 -0.00459726 8.0616 0.0113989 8.13539 0.0475117C8.2141 0.0849941 8.28075 0.143775 8.32777 0.217194C8.37479 0.290612 8.40031 0.375733 8.40143 0.462911V11.6647C8.40161 11.7504 8.37818 11.8345 8.33372 11.9078C8.28927 11.9811 8.22549 12.0407 8.14939 12.0801C8.08296 12.1141 8.00933 12.1317 7.93469 12.1314ZM3.73402 8.1548L7.46795 10.7686V1.35905L3.73402 3.9728V8.1548Z" fill="#101820"/>
<path d="M3.26719 8.86456H1.40022C1.02886 8.86456 0.672709 8.71704 0.410116 8.45445C0.147523 8.19185 0 7.8357 0 7.46434V4.66389C0 4.29253 0.147523 3.93638 0.410116 3.67379C0.672709 3.41119 1.02886 3.26367 1.40022 3.26367H3.26719C3.39097 3.26367 3.50969 3.31285 3.59722 3.40038C3.68475 3.48791 3.73393 3.60663 3.73393 3.73041V8.39782C3.73393 8.52161 3.68475 8.64033 3.59722 8.72786C3.50969 8.81539 3.39097 8.86456 3.26719 8.86456ZM1.40022 4.19715C1.27644 4.19715 1.15772 4.24633 1.07019 4.33386C0.982656 4.42139 0.933482 4.54011 0.933482 4.66389V7.46434C0.933482 7.58813 0.982656 7.70685 1.07019 7.79438C1.15772 7.88191 1.27644 7.93108 1.40022 7.93108H2.80045V4.19715H1.40022Z" fill="#101820"/>
<path d="M7.93457 8.39808V7.4646C8.21133 7.46435 8.48181 7.3821 8.71185 7.22822C8.94189 7.07435 9.12117 6.85575 9.22705 6.60005C9.33292 6.34434 9.36065 6.063 9.30672 5.79154C9.2528 5.52009 9.11964 5.2707 8.92406 5.07488L9.58683 4.41211C9.91405 4.7385 10.137 5.1547 10.2274 5.60794C10.3178 6.06119 10.2716 6.53107 10.0946 6.95801C9.9176 7.38495 9.61784 7.74974 9.23329 8.00611C8.84875 8.26248 8.39674 8.3989 7.93457 8.39808Z" fill="#101820"/>
<path d="M11.8925 10.489C11.8311 10.4894 11.7702 10.4776 11.7134 10.4544C11.6565 10.4311 11.6048 10.3969 11.5612 10.3537C11.5174 10.3103 11.4827 10.2586 11.459 10.2018C11.4353 10.1449 11.4231 10.0839 11.4231 10.0223C11.4231 9.96066 11.4353 9.89965 11.459 9.84277C11.4827 9.7859 11.5174 9.73428 11.5612 9.69089C12.5217 8.72836 13.0611 7.4241 13.0611 6.06431C13.0611 4.70452 12.5217 3.40026 11.5612 2.43773C11.5176 2.39421 11.4831 2.34255 11.4596 2.28569C11.436 2.22883 11.4239 2.16789 11.4239 2.10635C11.4239 2.0448 11.436 1.98386 11.4596 1.927C11.4831 1.87014 11.5176 1.81848 11.5612 1.77496C11.6047 1.73144 11.6563 1.69692 11.7132 1.67337C11.7701 1.64982 11.831 1.6377 11.8925 1.6377C11.9541 1.6377 12.015 1.64982 12.0719 1.67337C12.1287 1.69692 12.1804 1.73144 12.2239 1.77496C13.3611 2.91277 14 4.45562 14 6.06431C14 7.673 13.3611 9.21585 12.2239 10.3537C12.1803 10.3969 12.1286 10.4311 12.0717 10.4544C12.0149 10.4776 11.954 10.4894 11.8925 10.489Z" fill="#101820"/>
<path d="M10.5716 9.16803C10.4491 9.16751 10.3318 9.1189 10.2449 9.03268C10.1679 8.94346 10.1276 8.82844 10.1319 8.71071C10.1362 8.59298 10.1849 8.48124 10.2682 8.39791C10.5716 8.09452 10.8123 7.73433 10.9765 7.33791C11.1407 6.9415 11.2253 6.51662 11.2253 6.08754C11.2253 5.65846 11.1407 5.23358 10.9765 4.83716C10.8123 4.44075 10.5716 4.08056 10.2682 3.77717C10.1917 3.68788 10.1518 3.57303 10.1563 3.45556C10.1609 3.33809 10.2096 3.22667 10.2927 3.14354C10.3758 3.06042 10.4872 3.01172 10.6047 3.00718C10.7222 3.00265 10.837 3.0426 10.9263 3.11907C11.713 3.90669 12.1548 4.97436 12.1548 6.08754C12.1548 7.20072 11.713 8.26838 10.9263 9.05601C10.878 9.098 10.8216 9.12962 10.7606 9.14889C10.6996 9.16816 10.6352 9.17467 10.5716 9.16803Z" fill="#101820"/>
</svg>
