<svg width="20" height="17" viewBox="0 0 20 17" fill="none" xmlns="http://www.w3.org/2000/svg">
<g clip-path="url(#clip0_765_260)">
<path d="M10.3125 9.60832C11.9118 9.60832 13.2083 8.31181 13.2083 6.71249C13.2083 5.11316 11.9118 3.81665 10.3125 3.81665C8.71314 3.81665 7.41663 5.11316 7.41663 6.71249C7.41663 8.31181 8.71314 9.60832 10.3125 9.60832Z" stroke="#8E8E8E" stroke-width="1.5" stroke-linecap="round" stroke-linejoin="round"/>
<path d="M14.3666 15.3999C14.3666 14.3246 13.9395 13.2934 13.1792 12.5331C12.4189 11.7728 11.3877 11.3457 10.3125 11.3457C9.23724 11.3457 8.20604 11.7728 7.44574 12.5331C6.68544 13.2934 6.2583 14.3246 6.2583 15.3999H14.3666Z" stroke="#8E8E8E" stroke-width="1.5" stroke-linecap="round" stroke-linejoin="round"/>
<path d="M14.9458 7.29167C15.4394 7.29167 15.9249 7.16549 16.356 6.92512C16.7871 6.68475 17.1497 6.33816 17.4092 5.91827C17.6687 5.49837 17.8165 5.01911 17.8387 4.526C17.8609 4.03288 17.7567 3.54228 17.5359 3.10078C17.3152 2.65928 16.9852 2.28153 16.5774 2.00341C16.1696 1.72529 15.6975 1.55603 15.2059 1.5117C14.7143 1.46737 14.2195 1.54945 13.7685 1.75013C13.3175 1.95081 12.9253 2.26344 12.6292 2.65833" stroke="#8E8E8E" stroke-width="1.5" stroke-linecap="round" stroke-linejoin="round"/>
<path d="M15.525 13.0835H19C19 12.0082 18.5728 10.977 17.8125 10.2167C17.0522 9.45643 16.021 9.0293 14.9458 9.0293" stroke="#8E8E8E" stroke-width="1.5" stroke-linecap="round" stroke-linejoin="round"/>
<path d="M7.99583 2.65833C7.69966 2.26344 7.30746 1.95081 6.85649 1.75013C6.40551 1.54945 5.91072 1.46737 5.4191 1.5117C4.92748 1.55603 4.45535 1.72529 4.04755 2.00341C3.63974 2.28153 3.3098 2.65928 3.08905 3.10078C2.8683 3.54228 2.76407 4.03288 2.78625 4.526C2.80844 5.01911 2.95631 5.49837 3.21582 5.91827C3.47532 6.33816 3.83786 6.68475 4.26899 6.92512C4.70012 7.16549 5.18555 7.29167 5.67916 7.29167" stroke="#8E8E8E" stroke-width="1.5" stroke-linecap="round" stroke-linejoin="round"/>
<path d="M5.67917 9.0293C4.60394 9.0293 3.57274 9.45643 2.81244 10.2167C2.05213 10.977 1.625 12.0082 1.625 13.0835H5.1" stroke="#8E8E8E" stroke-width="1.5" stroke-linecap="round" stroke-linejoin="round"/>
</g>
<defs>
<clipPath id="clip0_765_260">
<rect width="20" height="17" fill="white"/>
</clipPath>
</defs>
</svg>
