<svg width="12" height="14" viewBox="0 0 12 14" fill="none" xmlns="http://www.w3.org/2000/svg">
<path d="M0.857143 12.6876C0.857143 13.4122 1.43304 14.0001 2.14286 14.0001H9.85714C10.567 14.0001 11.1429 13.4122 11.1429 12.6876V3.50011H0.857143V12.6876ZM8.14286 5.68761C8.14286 5.44425 8.33304 5.25011 8.57143 5.25011C8.80982 5.25011 9 5.44493 9 5.68761V11.8126C9 12.0553 8.80915 12.2501 8.57143 12.2501C8.3337 12.2501 8.14286 12.0553 8.14286 11.8126V5.68761ZM5.57143 5.68761C5.57143 5.44425 5.76161 5.25011 6 5.25011C6.23839 5.25011 6.42857 5.44493 6.42857 5.68761V11.8126C6.42857 12.0553 6.23772 12.2501 6 12.2501C5.76228 12.2501 5.57143 12.0553 5.57143 11.8126V5.68761ZM3 5.68761C3 5.44425 3.19018 5.25011 3.42857 5.25011C3.66696 5.25011 3.85714 5.44493 3.85714 5.68761V11.8126C3.85714 12.056 3.66696 12.2501 3.42857 12.2501C3.19018 12.2501 3 12.0553 3 11.8126V5.68761ZM11.5714 0.875109H8.57143L8.26125 0.241828C8.18869 0.093625 8.04027 0 7.87795 0H4.12232C3.95997 0 3.81161 0.093625 3.73902 0.241828L3.42857 0.875109H0.428571C0.191893 0.875109 0 1.07095 0 1.31261V2.18761C0 2.42922 0.191893 2.62511 0.428571 2.62511H11.5714C11.8082 2.62511 12 2.42922 12 2.18761V1.31261C12 1.07089 11.8071 0.875109 11.5714 0.875109Z" fill="#E64646"/>
</svg>
