<svg width="45" height="62" viewBox="0 0 45 62" fill="none" xmlns="http://www.w3.org/2000/svg">
<path d="M42.591 15.3515C43.8323 16.4024 43.8267 18.3216 42.5762 19.3616C41.7785 20.0258 40.976 20.6842 40.183 21.3541C39.9963 21.5123 39.8836 21.5739 39.6486 21.3711C37.6808 19.6799 35.695 18.0106 33.7138 16.3355C30.8128 13.8844 27.9108 11.4344 25.0087 8.98427C24.6212 8.6574 24.2186 8.34664 23.8424 8.00745C23.6965 7.87576 23.6103 7.86628 23.4616 7.99324C21.8651 9.35756 20.2659 10.7181 18.6637 12.0758C17.1886 13.3264 15.7077 14.5704 14.2325 15.821C12.6039 17.2024 10.979 18.5875 9.35131 19.9708C8.87074 20.3782 8.8669 21.118 9.34766 21.5252C11.6318 23.4599 13.9025 25.3827 16.1738 27.304C16.6959 27.7455 17.2208 28.1842 17.7532 28.6124C17.9095 28.7384 17.9219 28.8171 17.7618 28.9478C16.6078 29.8915 15.4358 30.8114 14.3007 31.7788C13.8829 32.1341 13.4462 32.4676 13.034 32.8295C12.9061 32.9422 12.8313 32.9697 12.6844 32.8447C10.9894 31.3989 9.28877 29.9588 7.58527 28.5224C5.68375 26.9184 3.7794 25.3172 1.87314 23.7189C1.07161 23.0472 0.418814 22.2892 0.241642 21.2072C-0.00564036 19.6961 0.46145 18.4473 1.60501 17.4516C2.69742 16.4994 3.80497 15.5633 4.9078 14.6234C6.42465 13.3311 7.94625 12.0445 9.46216 10.7522C11.142 9.32061 12.818 7.88334 14.4969 6.45081C15.8792 5.27124 17.2634 4.09451 18.6486 2.91779C19.0882 2.5445 19.5126 2.14942 19.9788 1.81118C21.1498 0.961322 22.4658 0.716881 23.9002 0.839101C25.3517 0.963216 26.4631 1.68991 27.5176 2.60419C29.1225 3.99503 30.7578 5.35272 32.3798 6.72461C33.8294 7.95155 35.2781 9.18039 36.7296 10.4064C38.0171 11.494 39.3094 12.577 40.597 13.6646C41.2613 14.2261 41.925 14.7878 42.591 15.3515Z" fill="#3D00FF"/>
<path d="M36.3797 42.178C36.482 42.0865 36.4907 41.9291 36.3859 41.8406C34.0091 39.8318 31.6512 37.8393 29.2915 35.8455C28.129 34.8634 28.1344 33.0648 29.3099 32.0982C30.192 31.3724 31.0816 30.6552 31.958 29.9219C32.1086 29.7959 32.1854 29.794 32.336 29.9219C34.4128 31.6832 36.4981 33.435 38.5778 35.1925C40.2178 36.5796 41.8663 37.9571 43.4874 39.366C45.3491 40.9842 45.243 43.7934 43.3283 45.3586C41.9128 46.5154 40.5447 47.7291 39.1548 48.9162C37.8179 50.0579 36.4811 51.1986 35.1424 52.3384C33.7676 53.5094 32.3919 54.6795 31.0172 55.8515C29.6159 57.0453 28.2165 58.2419 26.8143 59.4347C26.2222 59.9388 25.6499 60.4712 25.0246 60.9298C23.8375 61.8005 22.493 62.044 21.0349 61.9028C19.6431 61.7673 18.5583 61.0908 17.5436 60.204C16.256 59.0794 14.9391 57.987 13.6335 56.8833C12.0295 55.5265 10.4236 54.1717 8.81766 52.8168C7.34817 51.5766 5.87679 50.3393 4.4092 49.0972C3.1131 48.001 1.82079 46.9001 0.526586 45.802C0.270085 45.5837 0.264219 45.1908 0.522297 44.9744C0.88313 44.6718 1.23854 44.3738 1.5953 44.0776C2.65549 43.1965 3.72041 42.3211 4.77492 41.4333C4.99662 41.2467 5.12547 41.1908 5.39644 41.4238C7.29133 43.0534 9.21463 44.6499 11.1237 46.2634C13.3322 48.1289 15.5331 50.0029 17.7407 51.8703C18.8757 52.831 20.0183 53.7813 21.1515 54.7449C21.3087 54.8785 21.4016 54.8804 21.5617 54.743C23.5362 53.0575 25.5201 51.3824 27.4993 49.7016C29.1356 48.3117 30.7661 46.9152 32.4042 45.5272C33.7259 44.4064 35.0542 43.2941 36.3797 42.178Z" fill="#3D00FF"/>
<path d="M36.6157 24.2336C37.314 23.6556 38.0141 23.0805 38.7238 22.495C38.6138 22.4116 38.5343 22.3444 38.4499 22.2866C38.0833 22.0308 37.7176 21.774 37.3462 21.5258C33.9325 19.25 30.2489 17.6735 26.1303 17.2642C24.6476 17.1173 23.1592 17.1732 21.6878 17.4054C19.7901 17.7038 17.9738 18.2789 16.2665 19.1714C15.5844 19.5286 14.9193 19.9161 14.2826 20.4324C16.3167 20.0544 18.3007 19.7635 20.3301 19.935C21.6849 20.0487 22.9953 20.3074 24.2374 20.8683C25.272 21.3354 26.3098 22.1791 26.9938 23.102C24.9095 24.8206 22.7053 26.6846 20.6248 28.4071C18.9279 29.8131 17.2215 31.2077 15.5228 32.6109C13.2565 34.4821 10.9931 36.357 8.72866 38.2311C7.91291 38.9066 7.09622 39.5821 6.271 40.2643C7.18149 40.9266 8.08914 41.532 9.02616 42.0948C12.057 43.9148 15.2982 45.1294 18.8303 45.4847C20.2505 45.6278 21.6707 45.5652 23.09 45.3625C24.7452 45.1256 26.3303 44.6728 27.8528 43.9963C28.8552 43.551 29.8121 43.0204 30.7235 42.3136C28.6818 42.6888 26.6941 42.9873 24.659 42.812C23.4169 42.7049 22.2089 42.4851 21.0558 42.0114C19.9189 41.5443 18.7688 40.8279 18.0118 39.835C20.172 38.0415 23.5381 35.0382 25.7021 33.2475C27.5013 31.7591 29.3081 30.2792 31.1082 28.7927C32.9462 27.2749 34.7796 25.7533 36.6157 24.2336Z" fill="black"/>
</svg>
